# xmcd
#
# Track frame offsets: 
#        150
#        19766
#        39569
#        56436
#        76532
#        98198
#        117905
#        137903
#        152557
#        163857
#        178192
#        190753
#        202407
#        215712
#        234843
#        250040
#        264407
#        287389
#        305932
#        320241
#
# Disc length: 4450 seconds
#
# Revision: 0
# Processed by: cddbd v1.5.2PL0 Copyright (c) Steve Scherf et al.
# Submitted via: ExactAudioCopy v0.95b3
#
DISCID=1f116014
DTITLE=Sidney Bechet - Jazz Me Blues
DYEAR=2005
DGENRE=Blues
TTITLE0=Jazz Me Blues
TTITLE1=Blue Horizon
TTITLE2=Muskrat Ramble
TTITLE3=Jeepers Creepers
TTITLE4=Jackass Blues
TTITLE5=Milenberg Joys
TTITLE6=Up In Sidney's Flat
TTITLE7=House Party
TTITLE8=Blood On The Moon
TTITLE9=Ole Miss
TTITLE10=Gone Away Blues
TTITLE11=Out Of The Gallion
TTITLE12=Blame It On The Blues
TTITLE13=Old Stack O'Lee Blues
TTITLE14=Love For Sale
TTITLE15=Laura
TTITLE16=Tommy's Blues
TTITLE17=I'm Speaking My Mind
TTITLE18=I Found A New Baby
TTITLE19=Fidgety Feet
EXTD=
EXTT0=
EXTT1=
EXTT2=
EXTT3=
EXTT4=
EXTT5=
EXTT6=
EXTT7=
EXTT8=
EXTT9=
EXTT10=
EXTT11=
EXTT12=
EXTT13=
EXTT14=
EXTT15=
EXTT16=
EXTT17=
EXTT18=
EXTT19=
PLAYORDER=
